<svg width="60" height="21" viewBox="0 0 60 21" fill="none" xmlns="http://www.w3.org/2000/svg">
<g filter="url(#filter0_i_146_729)">
<path fill-rule="evenodd" clip-rule="evenodd" d="M8.8591 0.0681667C5.44649 0.506956 2.48954 2.64474 0.999766 5.75008C-1.89445 11.7826 1.77523 18.8937 8.40211 20.0945C8.9033 20.1854 10.822 20.207 18.2065 20.2052C23.9432 20.2038 27.5259 20.1721 27.7558 20.1208L28.1239 20.0387L27.5896 19.6886C26.2533 18.8128 25.0111 17.5348 24.1889 16.1899L23.7319 15.4423L16.4617 15.4151L9.19145 15.3878L8.50888 15.1569C7.20938 14.7172 6.06367 13.7571 5.45397 12.5968C3.73213 9.32006 5.75417 5.40626 9.44072 4.87998C9.91424 4.81235 12.5428 4.79257 18.5804 4.8111L27.0555 4.83711L27.6371 5.03087C29.0798 5.51162 30.2151 6.46622 30.8258 7.71188C31.3199 8.71991 31.4458 9.30352 31.397 10.3605C31.3655 11.0425 31.3075 11.3614 31.1324 11.8155C31.009 12.1354 30.8875 12.4629 30.8622 12.5431C30.802 12.7346 31.3781 13.2642 32.0169 13.6047C32.6574 13.946 33.4303 14.0973 34.543 14.0991L35.4667 14.1005L35.6449 13.6117C36.0548 12.4876 36.1702 11.8526 36.2132 10.4861C36.2754 8.50662 36.0093 7.24102 35.1822 5.58391C33.8193 2.85304 31.322 0.921899 28.2187 0.199113C27.4862 0.0284495 27.2867 0.0246285 18.4558 0.00909095C13.4904 0.000449755 9.17949 0.0269548 8.8591 0.0681667ZM33.1209 0.0156558C33.0752 0.0323565 32.7854 0.0705769 32.477 0.100489C32.1685 0.130401 31.9172 0.17992 31.9185 0.210579C31.9198 0.241156 32.131 0.393459 32.3878 0.549001C33.7132 1.35155 35.3804 3.11477 36.1102 4.48589L36.2745 4.79457H43.1044C47.5521 4.79457 50.161 4.82597 50.5843 4.88455C52.7514 5.18467 54.4765 6.72006 55.0159 8.82901C55.6979 11.4956 54.1655 14.2548 51.5013 15.1572L50.8187 15.3883H41.9283H33.0378L32.4147 15.1946C30.967 14.7446 29.8059 13.7806 29.1844 12.5126C28.6903 11.5045 28.5644 10.9209 28.6132 9.86396C28.6448 9.17914 28.7023 8.86498 28.8791 8.40891C29.2418 7.47375 29.2457 7.5138 28.751 7.1227C27.8096 6.37856 26.9837 6.1278 25.4671 6.12539L24.5435 6.12398L24.3675 6.60656C23.9649 7.71105 23.8444 8.37493 23.7992 9.73833C23.7661 10.738 23.7875 11.2532 23.8855 11.8155C24.2584 13.9555 25.2732 15.8555 26.8606 17.3858C28.2921 18.7657 29.9948 19.6555 31.9764 20.059C32.6504 20.1962 33.3962 20.2075 41.8452 20.2075C49.187 20.2075 51.1075 20.1853 51.6081 20.0945C56.4812 19.2115 60 15.0259 60 10.1122C60 8.47355 59.691 7.14863 58.9633 5.667C57.5696 2.82911 55.0558 0.884262 51.8553 0.167542C51.2988 0.042909 50.2956 0.0262065 42.2191 0.00684689C37.2608 -0.00503475 33.1666 -0.001045 33.1209 0.0156558Z" fill="#8EC2FF"/>
</g>
<defs>
<filter id="filter0_i_146_729" x="0" y="0" width="60" height="24.2075" filterUnits="userSpaceOnUse" color-interpolation-filters="sRGB">
<feFlood flood-opacity="0" result="BackgroundImageFix"/>
<feBlend mode="normal" in="SourceGraphic" in2="BackgroundImageFix" result="shape"/>
<feColorMatrix in="SourceAlpha" type="matrix" values="0 0 0 0 0 0 0 0 0 0 0 0 0 0 0 0 0 0 127 0" result="hardAlpha"/>
<feOffset dy="4"/>
<feGaussianBlur stdDeviation="2"/>
<feComposite in2="hardAlpha" operator="arithmetic" k2="-1" k3="1"/>
<feColorMatrix type="matrix" values="0 0 0 0 0 0 0 0 0 0 0 0 0 0 0 0 0 0 0.25 0"/>
<feBlend mode="normal" in2="shape" result="effect1_innerShadow_146_729"/>
</filter>
</defs>
</svg>
