<svg width="101" height="87" viewBox="0 0 101 87" fill="none" xmlns="http://www.w3.org/2000/svg">
<path fill-rule="evenodd" clip-rule="evenodd" d="M36.365 0.256185C35.1412 0.482839 34.5729 0.622865 33.2172 1.03161C30.2663 1.92171 26.532 4.9944 24.7442 8.00371C24.0127 9.23513 23.8723 9.37074 23.3297 9.37074C22.5026 9.37074 20.0261 9.85804 18.875 10.2474C14.5144 11.7218 10.644 15.3306 8.8982 19.5502C7.84388 22.0983 7.35139 25.1474 7.65487 27.2476C7.89478 28.9069 7.88594 29.1163 7.57324 29.1889C6.98663 29.3249 4.39605 31.6761 3.45986 32.9224C1.77859 35.1605 0.737326 37.5749 0.238496 40.3915C-0.326793 43.5841 0.106539 46.6387 1.60553 50.0291C2.50023 52.0529 4.79923 54.8928 6.59267 56.1893C7.98179 57.1937 7.88037 56.969 7.6785 58.5962C7.23114 62.1989 8.41224 66.5251 10.7085 69.695C12.3141 71.9116 14.7409 73.9378 17.061 74.9991C18.9943 75.8836 21.7589 76.5985 23.2452 76.5985C23.8942 76.5985 23.9776 76.6755 24.7551 77.9911C26.1777 80.3978 29.2552 83.2216 31.659 84.3255C34.7162 85.7296 38.4988 86.3373 40.8281 85.7989C43.2812 85.2317 44.5806 84.7148 46.065 83.7158C47.3129 82.8758 49.1496 80.9946 49.8136 79.8761C50.4281 78.8416 50.7669 78.6699 50.9647 79.2932C51.1374 79.8373 52.8241 81.9043 53.6953 82.6396C55.1542 83.8708 56.8045 84.8297 58.2374 85.2784C59.3427 85.6247 61.5185 86.01 62.3696 86.0102C63.6848 86.0106 66.4609 85.51 67.6739 85.0538C69.4066 84.4021 70.0964 84.0525 71.5155 83.1073C73.5064 81.781 75.505 79.6251 76.6588 77.5589C77.086 76.7937 77.2264 76.688 77.882 76.6381C78.9309 76.5582 81.2347 76.0762 82.3153 75.7105C86.4548 74.3103 90.0971 71.0532 91.9545 67.0906C93.2009 64.432 93.3822 63.56 93.4235 60.0265L93.459 56.9958L94.3962 56.2907C96.5085 54.7009 98.4072 52.4065 99.4461 50.1876C100.181 48.6181 100.215 48.5228 100.612 46.9222C101.305 44.1317 101.037 39.3597 100.063 37.1262C98.6113 33.7971 97.1343 31.8146 94.7932 30.0527L93.3904 28.9968L93.4734 26.6646C93.5602 24.2306 93.3826 22.872 92.7061 20.7995C91.1151 15.9239 87.2424 11.9867 82.3772 10.2981C81.0985 9.8542 78.6898 9.37074 77.7569 9.37074C77.1807 9.37074 77.0445 9.28065 76.8132 8.74648C76.1507 7.21618 73.8902 4.5699 72.1611 3.30064C70.9886 2.43994 68.7252 1.27209 67.5779 0.935954C67.1025 0.796505 66.4974 0.613838 66.2333 0.529707C65.9692 0.445768 64.9546 0.2704 63.9785 0.140362C59.8818 -0.405912 55.8176 1.06638 52.9798 4.12428C51.6422 5.56564 51.2813 6.02126 51.0174 6.60057C50.7073 7.28072 50.4553 7.17354 49.8105 6.08752C49.0485 4.80424 46.8394 2.69329 45.351 1.82643C43.887 0.973602 42.756 0.569467 40.8788 0.228334C39.1628 -0.0836024 38.1671 -0.0774565 36.365 0.256185ZM40.9169 3.8836C44.0245 4.62657 46.8087 7.16067 47.8949 10.2351C48.5459 12.0773 48.5616 12.8522 48.5616 42.9846C48.5616 76.11 48.6304 74.3168 47.2482 77.1747C46.5734 78.5698 44.5447 80.5989 43.1515 81.2716C40.4668 82.5683 37.9852 82.6738 34.6363 81.6335C31.6141 80.6946 28.831 78.2241 27.2473 75.074C26.2795 73.1489 25.9641 72.949 23.8959 72.949C19.6569 72.949 15.63 70.7007 13.2367 66.9982C11.362 64.0974 10.7604 60.6674 11.518 57.1985C11.8666 55.6019 11.6607 55.2003 9.89644 54.0347C6.98067 52.1084 5.23141 49.9058 4.24758 46.9222C3.54399 44.7879 3.49866 41.4524 4.14558 39.395C5.10905 36.3306 6.93746 33.9352 9.76429 32.0346C11.6789 30.7472 11.8457 30.432 11.5159 28.7266C10.9867 25.9914 11.08 24.2719 11.896 21.7358C13.5093 16.7205 18.6737 13.0202 24.0598 13.0202C25.9639 13.0202 26.2699 12.8385 27.0756 11.2297C28.1728 9.03863 29.3182 7.61052 30.9854 6.3547C34.008 4.07799 37.7915 3.13661 40.9169 3.8836ZM64.3459 3.8158C68.0131 4.55934 70.785 6.23831 72.5654 8.7945C72.823 9.16425 73.0863 9.50999 73.1507 9.56281C73.215 9.61564 73.5625 10.251 73.9228 10.975C74.8287 12.7949 75.1625 13.0195 76.9677 13.0235C81.8346 13.0346 86.4535 15.843 88.4888 20.029C89.6706 22.4594 89.9157 23.6409 89.7888 26.2941C89.7311 27.4978 89.629 28.8841 89.5617 29.3745C89.4889 29.9056 89.5264 30.4286 89.6539 30.6673C89.7721 30.8878 90.5594 31.5113 91.4036 32.0528C94.158 33.8197 95.9795 36.2236 96.9879 39.4229C97.6609 41.558 97.5618 45.3132 96.7797 47.3064C95.6852 50.0954 93.9177 52.2774 91.4303 53.9105C89.6635 55.0704 89.3802 55.4851 89.559 56.6509C89.9858 59.4328 89.8692 62.6856 89.2882 64.2094C87.2499 69.5557 82.5758 72.949 77.2502 72.949C75.1542 72.949 74.846 73.1601 73.7313 75.3582C72.2754 78.2298 69.6143 80.5674 66.6935 81.5409C63.1887 82.7089 60.7944 82.6348 57.9739 81.2706C56.6061 80.6091 54.5357 78.522 53.8943 77.1578C52.5269 74.2503 52.5961 76.0716 52.5961 42.9846C52.5961 10.1512 52.5429 11.6371 53.814 8.98715C54.3455 7.87905 54.5758 7.57902 55.8785 6.29747C58.0905 4.12159 61.2652 3.19116 64.3459 3.8158ZM35.0054 17.722C33.6726 18.3812 33.3386 19.0615 33.6595 20.4633C33.7763 20.9739 33.7444 21.0876 33.4844 21.0876C33.3094 21.0876 32.9135 21.3402 32.6046 21.649C32.1771 22.0766 32.0441 22.3858 32.0474 22.9456C32.0561 24.4397 33.2857 26.2925 34.7803 27.0628L35.5006 27.4341V29.5095C35.5006 31.4307 35.5336 31.616 35.9451 32.0027C36.5167 32.5395 37.9852 32.5879 38.4208 32.0841C38.9223 31.5042 39.1501 30.4975 39.1501 28.8614C39.1501 27.2875 39.1526 27.2796 39.7243 27.0428C40.4591 26.7385 41.5826 25.496 42.0463 24.4753C42.8261 22.7575 42.3696 20.3227 41.0043 18.9209C39.9065 17.7936 38.9463 17.3703 37.3254 17.2988C36.2013 17.2493 35.8208 17.3188 35.0054 17.722ZM60.1828 17.7085C59.0154 18.2663 58.3452 18.8887 57.6681 20.044C57.2315 20.7891 57.1551 21.1408 57.1566 22.3964C57.1593 24.5815 57.772 25.6958 59.6546 26.9383L60.4709 27.4773L60.4738 28.7483C60.4784 30.8198 61.2465 31.7155 62.709 31.3542C63.7065 31.108 64.1197 30.2811 64.12 28.5306C64.1204 27.5249 64.1831 27.2341 64.3995 27.2341C64.5532 27.2341 65.1607 26.7802 65.7496 26.2257C67.7164 24.3739 68.0648 22.2001 66.7732 19.8391C65.5484 17.5994 62.4845 16.6091 60.1828 17.7085ZM21.3807 19.5137C20.1988 20.0129 19.4927 20.6283 18.8105 21.7539C18.2553 22.6699 18.1866 22.9409 18.1816 24.2363C18.1772 25.3421 18.2753 25.8959 18.5903 26.5469C19.3715 28.1605 20.8841 29.264 22.5827 29.459C24.2342 29.6487 24.2505 29.6595 25.089 31.1249C26.2076 33.08 26.4994 34.1853 26.4324 36.214L26.3768 37.8945H23.8971H21.4172L20.9913 37.1337C20.1078 35.5556 18.308 34.3468 16.8357 34.343C15.8025 34.3401 14.9468 35.1109 14.9524 36.0388C14.9587 37.0661 15.8465 37.9906 16.8265 37.9906C17.3382 37.9906 17.8259 38.5893 17.9532 39.3737C18.2046 40.9226 16.2278 41.793 15.1924 40.5894C14.7601 40.0865 14.7295 39.9334 14.8457 38.8476C14.962 37.7628 14.9314 37.6083 14.501 37.108C14.1258 36.6719 13.8683 36.5586 13.2507 36.5586C12.2657 36.5586 11.6707 37.0889 11.319 38.2798C10.648 40.5519 11.9705 43.2253 14.3089 44.3246C16.357 45.2873 19.4217 44.4711 20.5374 42.6658C21.2084 41.5801 21.4268 41.448 22.5489 41.448H23.5917L23.5882 43.3208L23.5848 45.1935L22.643 45.8093C20.8117 47.0066 19.835 49.2074 20.311 51.0644C21.0286 53.8644 22.8011 55.2777 25.5951 55.2777C26.3824 55.2777 27.0799 55.1913 27.1452 55.0856C27.2105 54.98 27.4154 54.8935 27.6008 54.8935C28.0691 54.8935 29.6316 53.4184 30.1441 52.4925C30.4774 51.89 30.5728 51.3925 30.5859 50.1876C30.6007 48.8346 30.5384 48.5419 30.0661 47.7384C29.4534 46.6958 28.9861 46.2117 27.9544 45.55L27.227 45.0837L27.2821 43.3138L27.3372 41.544L30.2184 41.4416C32.431 41.3631 33.3002 41.2553 33.964 40.9776C35.5798 40.3017 36.7541 39.3293 37.6623 37.9155C38.8647 36.0436 39.0716 34.7269 38.295 33.8889C37.3355 32.8536 35.5413 33.411 35.1923 34.8527C34.7872 36.5263 33.1891 37.761 31.3196 37.845L30.2184 37.8945L30.0974 35.7816C30.0308 34.6196 29.8898 33.3662 29.784 32.9965C29.3353 31.4278 28.9027 30.4019 28.2779 29.4252C27.3411 27.9606 27.339 27.9452 27.93 26.7374C28.6413 25.2835 28.734 23.9805 28.2227 22.6221C27.1941 19.8898 23.9643 18.4225 21.3807 19.5137ZM38.3215 21.3131C38.6344 21.6071 38.766 21.9462 38.766 22.4581C38.766 24.3892 36.0722 24.5552 35.5978 22.6532C35.5279 22.3732 35.3343 21.9928 35.1677 21.8079C34.8898 21.4994 34.895 21.4712 35.2307 21.465C35.432 21.4612 35.8127 21.3346 36.0769 21.1836C36.8023 20.7689 37.8036 20.8267 38.3215 21.3131ZM63.4574 21.4037C64.0332 22.0253 64.0603 22.7888 63.5302 23.4626C63.2117 23.8677 62.972 23.9676 62.3297 23.9626C61.284 23.9547 60.8463 23.5988 60.7195 22.6538C60.6327 22.0065 60.6945 21.8069 61.1111 21.3903C61.7955 20.7059 62.816 20.7119 63.4574 21.4037ZM23.9797 22.9142C24.9935 23.4386 25.2334 24.4995 24.5381 25.3834C24.219 25.7891 23.9772 25.8896 23.3193 25.8896C21.6417 25.8896 21.0783 23.8654 22.5126 22.9909C23.2354 22.5501 23.2719 22.5483 23.9797 22.9142ZM74.2378 24.9747C71.3929 25.4668 69.4011 28.4588 70.0678 31.2384C70.3665 32.4829 70.8384 32.9056 71.9037 32.8824C73.1931 32.8544 73.7642 32.0388 73.588 30.4768C73.5066 29.7546 73.5673 29.5199 73.9501 29.0748C75.1873 27.6365 77.4953 29.2212 76.5998 30.8942C76.3542 31.3534 75.4329 31.844 74.8166 31.844C74.0888 31.844 73.3402 32.723 73.3402 33.5777C73.3402 34.6879 73.8335 35.151 75.1308 35.2586L76.2168 35.3487L76.9723 36.5448L77.7277 37.741L77.2147 38.7777C76.4619 40.299 76.4863 42.1097 77.2792 43.5461C78.2404 45.2875 79.89 46.25 81.9133 46.25C83.9674 46.25 85.7956 45.065 86.655 43.1767C87.1377 42.1162 87.1792 40.1353 86.7403 39.1161C85.9433 37.267 83.8624 35.8777 81.8895 35.8777H80.8457L80.059 34.7192L79.2722 33.5608L79.8033 32.4756C81.692 28.6152 78.4503 24.2463 74.2378 24.9747ZM61.6979 32.4164C60.79 32.7833 60.4709 33.5113 60.4709 35.2156C60.4709 36.9412 60.3689 37.4143 59.9973 37.4143C59.5545 37.4143 58.0588 38.9035 57.5942 39.8067C56.954 41.0515 56.9461 43.3042 57.5782 44.4252C58.1498 45.4392 58.6523 45.9659 59.6479 46.5948L60.4702 47.1143L60.4705 52.0752L60.4709 57.036L61.0324 57.5974C61.7527 58.3177 62.7148 58.3581 63.4799 57.7002C63.9891 57.2623 64.0165 57.1497 64.0882 55.2141L64.1633 53.1869L65.3868 54.1248C66.9659 55.3351 70.043 56.7993 71.0353 56.8126C71.8478 56.8235 72.7932 57.2503 72.9567 57.6802C73.2455 58.4403 74.4501 59.6331 75.3605 60.0612C76.6117 60.6494 78.6147 60.6202 79.8465 59.9959C81.4687 59.174 82.6146 57.5429 82.6407 56.0183C82.6586 54.9836 82.2543 54.4072 81.3749 54.2142C80.4499 54.0109 79.7446 54.4333 79.2751 55.4719C78.7238 56.6916 77.8624 57.1387 76.8685 56.7208C76.0922 56.3942 75.7047 55.4853 76.0188 54.7272C76.3288 53.9785 76.9738 53.6654 77.8847 53.8213C79.861 54.1602 79.9508 54.1558 80.5188 53.6913C80.9621 53.3289 81.0749 53.0769 81.0924 52.4109C81.1112 51.6939 81.0278 51.5097 80.4762 51.0491C79.2373 50.0147 76.979 49.8075 75.3625 50.5796C74.5196 50.9824 72.9561 52.4668 72.9561 52.8644C72.9561 53.4672 72.4636 53.5557 71.2765 53.166C68.797 52.3519 66.299 50.6136 65.0958 48.8649C64.1193 47.4455 64.1393 47.2015 65.3031 46.3333C66.4938 45.4452 67.3944 43.8774 67.5272 42.4618C67.6923 40.7004 66.4327 38.3941 64.8701 37.597L64.1204 37.2144L64.1012 35.6337C64.0764 33.5887 63.951 33.1878 63.1716 32.6625C62.4749 32.193 62.3164 32.1665 61.6979 32.4164ZM83.0656 40.0554C83.6259 40.7067 83.6459 41.4288 83.1223 42.0943C82.8011 42.5027 82.5627 42.6005 81.8878 42.6005C81.2128 42.6005 80.9744 42.5027 80.6533 42.0943C80.4343 41.816 80.2551 41.3523 80.2551 41.0638C80.2551 39.615 82.1135 38.9483 83.0656 40.0554ZM63.3373 40.9849C64.1247 41.6474 64.1448 42.5133 63.3896 43.2368C62.0565 44.514 60.1713 43.1506 60.8395 41.3929C61.2081 40.4232 62.4324 40.2233 63.3373 40.9849ZM26.6694 49.0831C26.985 49.4834 27.0626 49.7844 26.9903 50.3265C26.8609 51.297 26.4287 51.6806 25.4647 51.6806C23.9661 51.6806 23.2556 50.096 24.2901 49.0612C25.0065 48.3448 26.0953 48.3548 26.6694 49.0831ZM37.9016 49.3866C35.6962 50.4527 34.3503 53.0909 34.9261 55.2187C35.0636 55.7266 35.2557 56.2454 35.3531 56.3716C35.4505 56.4978 35.5018 56.8003 35.4674 57.0439C35.4065 57.4726 35.3519 57.4847 33.7487 57.4265C32.222 57.3712 32.0499 57.4032 31.5442 57.8383C31.1087 58.2129 30.9954 58.4706 30.9954 59.088C30.9954 60.1369 31.5949 60.766 32.761 60.9408C34.4332 61.1916 34.5402 61.2838 34.5402 62.4736C34.5402 63.4968 34.5149 63.5482 33.7853 64.0089C32.7014 64.693 32.0701 65.4097 31.5211 66.5783C30.3464 69.0798 31.6237 72.1903 34.3147 73.3806C35.3758 73.85 37.5292 73.7861 38.6271 73.2529C42.2854 71.4754 42.4754 66.1997 38.958 64.0621C38.5883 63.8373 38.2222 63.5625 38.1446 63.4512C37.9235 63.1345 37.9738 60.8762 38.2201 60.0539L38.4427 59.3114H39.8293C42.0526 59.3114 43.8023 58.3114 44.7277 56.512C45.3812 55.2414 45.3831 52.8731 44.7314 51.7242C43.7525 49.9988 42.2405 49.0841 40.2066 48.9869C39.0927 48.9335 38.6972 49.0021 37.9016 49.3866ZM41.0853 52.8348C41.2517 52.9635 41.4814 53.3398 41.5959 53.6711C42.0069 54.8609 40.7622 56.0612 39.5541 55.64C38.9114 55.4158 38.3818 54.7264 38.3818 54.1137C38.3818 53.8886 38.5606 53.4533 38.779 53.1464C39.1109 52.6804 39.3086 52.5895 39.9795 52.5947C40.4213 52.598 40.919 52.7061 41.0853 52.8348ZM26.857 58.5067C26.276 58.797 25.4756 59.2566 25.0784 59.5282C24.4259 59.974 24.2215 60.0132 22.9655 59.9337C21.7694 59.858 21.427 59.9139 20.5184 60.3326C18.4956 61.2648 17.4567 62.8869 17.4494 65.1239C17.4444 66.6424 17.865 67.7035 18.8906 68.7594C20.7933 70.7182 24.0923 70.7933 26.1462 68.9244C27.5812 67.6184 28.1979 65.1654 27.5309 63.4182C27.1571 62.4398 27.1557 62.4422 28.4897 61.7202C29.0179 61.4342 29.5994 61.013 29.782 60.784C30.4353 59.9646 30.0748 58.7153 29.0306 58.1814C28.411 57.8644 28.0276 57.9219 26.857 58.5067ZM61.4352 59.1738C60.7199 59.5357 60.4769 60.2111 60.4738 61.8449L60.4709 63.322L59.4276 64.0511C58.7779 64.5052 58.1502 65.1663 57.764 65.8038C57.2225 66.6972 57.1418 67.0036 57.1312 68.2077C57.1182 69.7036 57.3829 70.5703 58.1556 71.561C59.3056 73.035 61.3276 73.8297 63.0942 73.5016C64.3212 73.2738 65.0269 72.9219 65.8805 72.1121C66.5281 71.4978 66.7433 71.136 67.3587 69.6266C68.0558 67.9175 66.8806 65.1085 64.9886 63.9604L64.1325 63.4411L64.1266 62.0771C64.1183 60.2495 63.8484 59.5307 63.0442 59.1946C62.2626 58.868 62.045 58.8653 61.4352 59.1738ZM23.7698 64.0432C24.2647 64.6725 24.2826 65.6509 23.8093 66.1968C23.5418 66.5051 23.2319 66.6104 22.5906 66.6104C21.5468 66.6104 21.0659 66.1694 21.038 65.1869C20.9957 63.6963 22.8774 62.9088 23.7698 64.0432ZM63.4574 67.3107C64.2802 68.1987 63.9652 69.383 62.7749 69.8761C61.6449 70.3442 60.5074 69.3248 60.7452 68.0573C60.9849 66.779 62.5621 66.3447 63.4574 67.3107ZM37.4166 67.3745C37.7245 67.6415 37.8605 67.9791 37.8743 68.5108C37.9018 69.5578 37.4095 70.0678 36.3715 70.0678C35.33 70.0678 34.7323 69.5365 34.7323 68.6111C34.7323 67.2377 36.3825 66.4775 37.4166 67.3745Z" fill="#F2F2F2"/>
</svg>
