<svg width="20" height="18" viewBox="0 0 20 18" fill="none" xmlns="http://www.w3.org/2000/svg">
<path fill-rule="evenodd" clip-rule="evenodd" d="M7.44343 0.985535C7.21398 1.02803 7.10741 1.05429 6.85322 1.13093C6.29992 1.29782 5.59976 1.87395 5.26453 2.4382C5.12739 2.66909 5.10106 2.69451 4.99932 2.69451C4.84424 2.69451 4.3799 2.78588 4.16406 2.85889C3.34645 3.13534 2.62075 3.81198 2.29341 4.60316C2.09573 5.08093 2.00339 5.65263 2.06029 6.04642C2.10527 6.35755 2.10361 6.39681 2.04498 6.41042C1.93499 6.43592 1.44926 6.87678 1.27372 7.11044C0.958486 7.53009 0.763249 7.98279 0.669718 8.51092C0.563726 9.10952 0.644976 9.68226 0.926036 10.318C1.09379 10.6974 1.52486 11.2299 1.86113 11.473C2.12159 11.6613 2.10257 11.6192 2.06472 11.9243C1.98084 12.5998 2.2023 13.411 2.63285 14.0053C2.9339 14.4209 3.38891 14.8008 3.82394 14.9998C4.18643 15.1657 4.70479 15.2997 4.98347 15.2997C5.10517 15.2997 5.1208 15.3142 5.26659 15.5608C5.53331 16.0121 6.11034 16.5415 6.56107 16.7485C7.13428 17.0118 7.84352 17.1257 8.28027 17.0248C8.74022 16.9184 8.98386 16.8215 9.26219 16.6342C9.49617 16.4767 9.84055 16.124 9.96505 15.9143C10.0803 15.7203 10.1438 15.6881 10.1809 15.805C10.2133 15.907 10.5295 16.2946 10.6929 16.4324C10.9664 16.6633 11.2758 16.8431 11.5445 16.9272C11.7517 16.9921 12.1597 17.0644 12.3193 17.0644C12.5659 17.0645 13.0864 16.9706 13.3139 16.8851C13.6387 16.7629 13.7681 16.6973 14.0342 16.5201C14.4075 16.2714 14.7822 15.8672 14.9985 15.4798C15.0786 15.3363 15.105 15.3165 15.2279 15.3071C15.4245 15.2922 15.8565 15.2018 16.0591 15.1332C16.8353 14.8707 17.5182 14.26 17.8665 13.517C18.1002 13.0185 18.1342 12.855 18.1419 12.1925L18.1486 11.6242L18.3243 11.492C18.7203 11.1939 19.0763 10.7637 19.2712 10.3477C19.4089 10.0534 19.4153 10.0355 19.4898 9.73542C19.6197 9.2122 19.5695 8.31744 19.3869 7.89866C19.1146 7.27445 18.8377 6.90274 18.3987 6.57238L18.1357 6.37441L18.1513 5.93711C18.1675 5.48073 18.1342 5.226 18.0074 4.8374C17.7091 3.92323 16.9829 3.185 16.0707 2.86839C15.831 2.78516 15.3793 2.69451 15.2044 2.69451C15.0964 2.69451 15.0708 2.67762 15.0275 2.57746C14.9033 2.29053 14.4794 1.79436 14.1552 1.55637C13.9354 1.39499 13.511 1.17602 13.2959 1.11299C13.2067 1.08684 13.0933 1.05259 13.0437 1.03682C12.9942 1.02108 12.804 0.9882 12.621 0.963818C11.8528 0.861392 11.0908 1.13745 10.5587 1.7108C10.3079 1.98106 10.2402 2.06649 10.1908 2.17511C10.1326 2.30264 10.0854 2.28254 9.96447 2.07891C9.8216 1.8383 9.4074 1.44249 9.12832 1.27996C8.85381 1.12005 8.64176 1.04428 8.28978 0.980313C7.96803 0.921825 7.78132 0.922977 7.44343 0.985535ZM8.29691 1.66568C8.8796 1.80498 9.40164 2.28013 9.6053 2.85658C9.72735 3.202 9.73031 3.34728 9.73031 8.99712C9.73031 15.2081 9.7432 14.8719 9.48404 15.4078C9.35752 15.6693 8.97713 16.0498 8.71591 16.1759C8.21253 16.4191 7.74722 16.4388 7.1193 16.2438C6.55264 16.0677 6.03082 15.6045 5.73388 15.0139C5.5524 14.6529 5.49326 14.6154 5.10549 14.6154C4.31068 14.6154 3.55563 14.1939 3.10688 13.4997C2.75538 12.9558 2.64258 12.3126 2.78462 11.6622C2.84999 11.3629 2.81138 11.2876 2.48058 11.069C1.93388 10.7078 1.60589 10.2948 1.42142 9.73542C1.2895 9.33523 1.281 8.70983 1.4023 8.32407C1.58295 7.74949 1.92577 7.30035 2.4558 6.94398C2.8148 6.70261 2.84606 6.64351 2.78422 6.32373C2.685 5.81088 2.70251 5.48848 2.8555 5.01297C3.15799 4.07259 4.12632 3.3788 5.13621 3.3788C5.49323 3.3788 5.5506 3.34473 5.70168 3.04307C5.9074 2.63224 6.12215 2.36447 6.43476 2.12901C7.00149 1.70212 7.71092 1.52561 8.29691 1.66568ZM12.6899 1.65296C13.3775 1.79238 13.8972 2.10718 14.231 2.58647C14.2793 2.6558 14.3287 2.72062 14.3408 2.73053C14.3528 2.74043 14.418 2.85957 14.4855 2.99531C14.6554 3.33655 14.718 3.37865 15.0564 3.37941C15.969 3.3815 16.835 3.90807 17.2166 4.69294C17.4382 5.14864 17.4842 5.37017 17.4604 5.86764C17.4496 6.09335 17.4304 6.35326 17.4178 6.44521C17.4042 6.54479 17.4112 6.64286 17.4351 6.68763C17.4573 6.72897 17.6049 6.84588 17.7632 6.9474C18.2796 7.2787 18.6212 7.72943 18.8102 8.32929C18.9364 8.72963 18.9178 9.43373 18.7712 9.80745C18.566 10.3304 18.2346 10.7395 17.7682 11.0457C17.4369 11.2632 17.3838 11.341 17.4173 11.5595C17.4973 12.0811 17.4755 12.6911 17.3665 12.9768C16.9844 13.9792 16.108 14.6154 15.1094 14.6154C14.7164 14.6154 14.6586 14.655 14.4496 15.0672C14.1766 15.6056 13.6777 16.0439 13.13 16.2264C12.4729 16.4454 12.0239 16.4315 11.4951 16.1757C11.2386 16.0517 10.8504 15.6604 10.7302 15.4046C10.4738 14.8594 10.4868 15.2009 10.4868 8.99712C10.4868 2.84084 10.4768 3.11945 10.7151 2.62259C10.8148 2.41482 10.858 2.35857 11.1022 2.11827C11.517 1.7103 12.1122 1.53584 12.6899 1.65296Z" fill="white"/>
</svg>
