<svg width="20" height="20" viewBox="0 0 20 20" fill="none" xmlns="http://www.w3.org/2000/svg">
<path fill-rule="evenodd" clip-rule="evenodd" d="M16.8398 0.667604C15.9648 1.72236 18.276 4.03376 19.3307 3.15865C20.261 2.38607 20.2229 1.63118 19.2073 0.712063C18.173 -0.224292 17.5892 -0.23518 16.8398 0.667604ZM11.9739 5.52948C9.51434 8.00511 8.69646 9.1379 8.69646 10.0661C8.69646 11.1154 8.88698 11.3028 9.95526 11.3028C10.9187 11.3028 12.0047 10.507 14.5817 7.91211L17.9494 4.52145L16.873 3.3755C16.2805 2.74537 15.6736 2.22956 15.5239 2.22956C15.3737 2.22956 13.7766 3.71439 11.9739 5.52948ZM0.790319 3.39592C-0.26344 4.45022 -0.26344 18.1553 0.790319 19.2096C1.84453 20.2635 15.5484 20.2635 16.6026 19.2096C17.6564 18.1553 17.645 9.13245 16.589 8.72733C15.4123 8.27594 15.0617 9.4609 15.0539 13.9113L15.0471 18.1077H8.69646H2.34578V12.4369V6.76616H5.42904C8.40025 6.76616 8.57353 6.70355 10.192 5.04588C11.1161 4.09954 11.8718 3.18088 11.8718 3.00441C11.8718 2.82793 9.53883 2.68322 6.68738 2.68322C2.5794 2.68322 1.35553 2.83111 0.790319 3.39592Z" fill="#CACACA"/>
</svg>
